PathFileType	4	(X/Y/Z)	Patient4_TMGait_0pt6_01_right_44.trc.trc
DataRate	CameraRate	NumFrames	NumMarkers	Units	OrigDataRate	OrigDataStartFrame	OrigNumFrames
83.832335329341	83.832335329341	4	33	mm	83.832335329341	89	       141
Frame#	Time	Sacral			L.Shoulder			Chest			R.Shoulder			Neck			R.ASIS			L.ASIS			R.Thigh.Superior			R.Thigh.Lateral			R.Thigh.Inferior			R.Patella			L.Thigh.Superior			L.Thigh.Lateral			L.Thigh.Inferior			L.Patella			L.Shank.Superior			L.Shank.Lateral			L.Shank.Inferior			R.Shank.Superior			R.Shank.Lateral			R.Shank.Inferior			R.Heel			R.Midfoot.Superior			R.Midfoot.Lateral			R.Toe			L.Heel			L.Midfoot.Lateral			L.Midfoot.Superior			L.Toe			L.Elbow			L.Wrist			R.Elbow			R.Wrist			
		X1	Y1	Z1	X2	Y2	Z2	X3	Y3	Z3	X4	Y4	Z4	X5	Y5	Z5	X6	Y6	Z6	X7	Y7	Z7	X8	Y8	Z8	X9	Y9	Z9	X10	Y10	Z10	X11	Y11	Z11	X12	Y12	Z12	X13	Y13	Z13	X14	Y14	Z14	X15	Y15	Z15	X16	Y16	Z16	X17	Y17	Z17	X18	Y18	Z18	X19	Y19	Z19	X20	Y20	Z20	X21	Y21	Z21	X22	Y22	Z22	X23	Y23	Z23	X24	Y24	Z24	X25	Y25	Z25	X26	Y26	Z26	X27	Y27	Z27	X28	Y28	Z28	X29	Y29	Z29	X30	Y30	Z30	X31	Y31	Z31	X32	Y32	Z32	X33	Y33	Z33	

89	53.969714285714	778.501671574146	1006.041627019813	454.442982666142	920.557995674435	1437.108470971452	266.095860763399	1043.572008712735	1367.067577391556	412.856924736651	979.305141273746	1437.530838177858	593.135993662780	916.049616409245	1492.980279848381	420.722062486278	1009.454956970685	937.972211785658	552.778669951466	980.142180751833	961.537269640613	280.629844614969	1029.245000653992	727.106451105574	532.591888741190	940.252160288422	624.445134373206	597.663246907408	1013.827009008491	560.353426156579	522.126420951644	998.788143702199	454.478135554745	539.604084727429	1051.621405583504	761.990349984576	315.022738517771	977.719209589976	636.630591381378	256.250679484643	1072.580556345664	567.834245203454	317.937409838573	1082.125221072932	495.925271495851	327.660894344272	1054.959684679742	421.333121642331	320.622084525000	968.618519930708	306.604167429095	265.532064371708	1018.313132064824	195.517027732705	337.228213532120	925.110163442237	386.975234971102	544.373176590605	809.697977385091	336.103565927746	605.899137952300	801.148599873657	228.864617171157	550.881162311110	602.695386935636	137.477297335849	526.498860700659	780.192691254840	112.035672131328	557.785692344228	674.808142472053	88.859145883046	594.752284787702	865.569184483787	32.699152299788	576.161297219065	889.776669060991	38.670204769909	370.841814813186	967.166459689563	35.739151481254	293.594707884280	1048.617207605687	97.227641344910	323.918461532427	1178.722558220208	44.919472544370	301.351393356933	856.665555639039	1084.511353797830	167.427627488839	901.114078559640	827.181440013696	179.706571206331	1145.763203930171	1139.445990644833	691.712979879157	1332.017139701108	1268.126675049793	591.521853928797	
90	53.981642857143	777.518871491075	1006.797167639325	451.208763343526	921.955291201121	1438.148433823809	263.910177569516	1043.559440562426	1367.637738187425	411.642734057954	977.942929947405	1438.210386004532	591.384616399167	915.979070547153	1493.736872053255	418.784716461043	1007.868222668377	938.767643352361	550.730862322557	980.074191331192	962.000411284497	278.519155387793	1033.063716673819	729.475889126308	530.715699520407	947.111444641861	625.014402133751	596.139403644077	1022.670791862289	562.209306836930	520.744460217421	1008.993292675273	454.937155540498	539.149082598308	1049.430673559053	761.019318496135	311.756242720964	973.356325544758	636.704164681199	253.974324346977	1067.474532036481	566.923144829222	315.301851337728	1076.115771338274	495.224052297301	325.307381961159	1048.843132498490	420.825302726892	318.622683979748	962.028768532678	306.176856345816	264.146771436511	1011.306236515824	195.192562419007	336.367774846457	933.342226468472	388.333493852899	543.800792431209	815.978697547522	341.501531716910	604.891050638200	804.703798099460	234.120790295053	550.784558802251	603.748946433754	151.584986992212	526.105928784135	779.461057350531	116.244958724458	557.803377685931	672.916363826390	99.003474597140	594.510473021183	859.555725668559	31.728212062332	576.423928276423	882.463228879664	38.610251574230	370.726142782625	959.835903061476	35.583707982031	293.437195404625	1041.360414623046	97.009964313829	323.684944495828	1171.473180873241	44.554531719375	301.263572114613	858.337440028696	1085.777415724454	164.053787095409	901.863238729040	828.408827821701	176.434173515520	1140.769168256064	1137.631466017107	690.689254360394	1331.861128241812	1261.239939613424	592.725883026169	
91	53.993571428571	776.433345106710	1007.419085850843	448.064503156531	923.295937447095	1438.986310571131	261.795545758955	1043.430288931205	1368.082410732157	410.549157336130	976.421475711465	1438.780242650953	589.752699754383	915.822818563013	1494.392348620964	416.899860755382	1006.138402897043	939.473038137225	548.907259411912	979.964333538788	962.352089410145	276.610362710917	1036.991850952350	732.096287955690	528.849746733882	954.300715072674	625.788986539915	594.627215522928	1031.789093899737	564.467306636393	519.264422587001	1019.647705573084	455.873311393863	538.360910294377	1047.135995069314	760.038929020995	308.745938405696	969.072279764306	636.833815023282	251.746754147017	1062.338014039907	566.047908748781	312.828018109886	1070.059631559814	494.537580257206	323.006178983319	1042.699233790036	420.341173751012	316.645777300343	955.416896832254	305.774788402847	262.774394586755	1004.307589918295	194.887732521045	335.490245751487	942.175727060075	390.016046352158	542.940932984761	823.056626316897	347.139525154760	603.666985563516	809.019480931909	239.779016037239	550.365476933604	606.014663592458	166.115928547553	525.297266350847	779.545127006493	121.219423256245	557.617124799278	672.073332733795	109.910199823525	594.011065316620	854.287151534316	31.010426867330	576.799144169978	875.180604472562	38.561475022622	370.599328460026	952.535958066823	35.448482299937	293.269310872166	1034.130242801541	96.812660661928	323.435762538400	1164.246722690161	44.221793201843	301.160103881728	860.386795831157	1086.751860688181	160.625710801729	903.443476760936	829.433270435454	172.815454965966	1134.943975852004	1135.242719664606	689.714947298132	1331.307229269273	1252.918384281158	594.286619596091	
92	54.005500000000	775.265041583160	1007.931472928559	445.019085466584	924.544184864291	1439.643649381157	259.778625287645	1043.170408732081	1368.433623015807	409.584000582849	974.744681642760	1439.259340444735	588.257926412814	915.577267595939	1494.972988908340	415.078717018630	1004.291268625598	940.115430238382	547.313740777785	979.827557679274	962.635177331597	274.908295924962	1040.915066203633	734.990038309388	526.988136247396	961.670214695963	626.840699825767	593.121831262905	1041.005238411604	567.178598323203	517.697879522336	1030.609234365067	457.343709591527	537.273778558547	1044.784789074131	759.074856602684	306.009877839710	964.855799999849	637.000633753101	249.643790243775	1057.188708247782	565.202014522856	310.564839674893	1063.979978474686	493.871288211555	320.863507241996	1036.548713722562	419.890955144607	314.780585241561	948.814990241009	305.415578708617	261.471477900082	997.338271249927	194.611762690093	334.643979351137	951.485855657714	392.060163167178	541.819423707764	830.812824568810	352.951581310668	602.228652719766	814.073407478464	245.753241094923	549.622748147847	609.495295032926	180.637003397499	524.034981466752	780.570025598497	126.870435294460	557.225662279619	672.400611234032	121.253016527594	593.218597239855	850.065371218124	30.752467813938	577.260380349760	867.933547471022	38.526208064040	370.466903866206	945.272360358573	35.340290538155	293.099059060706	1026.930517466252	96.642125036186	323.184890762323	1157.046517983521	43.929133114770	301.042177350509	862.856383909949	1087.445126672389	157.176896702462	905.895089450798	830.260547067862	168.920929696195	1128.264733231510	1132.327637977281	688.782855970531	1330.229976467290	1243.131042916291	596.179054340605	
